<svg id="BLACK" xmlns="http://www.w3.org/2000/svg" viewBox="0 0 1338.29 762.29"><defs><style>.cls-1{fill:#231f20;}.cls-2{fill:none;}</style></defs><title>InformEdge</title><path class="cls-1" d="M431.88,447.85q23,24.38,23,66.41c0,4.68-.12,8.24-.34,10.68l-118.13,1.34a48.9,48.9,0,0,0,11.18,18.19,25.71,25.71,0,0,0,16.85,7.84q26.68,2,38.71-15.69l47.72,13.69a64.15,64.15,0,0,1-16.68,28.19A87.31,87.31,0,0,1,404.68,598a93.34,93.34,0,0,1-35.54,7,50.89,50.89,0,0,1-6.67-.33,85.06,85.06,0,0,1-42.55-15,96.33,96.33,0,0,1-31-35,99.53,99.53,0,0,1-11.51-47.38,67.17,67.17,0,0,1,.33-7.68,75,75,0,0,1,13.52-39.38,82.74,82.74,0,0,1,32-27q19.86-9.68,43.89-9.68Q408.86,423.49,431.88,447.85Zm-95.11,37.71,56.4.34q-1.34-9.67-7.84-15a26.26,26.26,0,0,0-14.85-6Q345.78,462.88,336.77,485.56Z"/><path class="cls-2" d="M558.34,476.89q-13.7,0-24.19,10.51a34.2,34.2,0,0,0-5.68,42.22,38.71,38.71,0,0,0,13,13.51,31.09,31.09,0,0,0,16.85,5.17,32.43,32.43,0,0,0,17.35-5.17,40.85,40.85,0,0,0,13.52-13.68,33.28,33.28,0,0,0,5.17-17.52q0-14-10.84-24.53T558.34,476.89Z"/><path d="M638.6,401.57a95.24,95.24,0,0,1-34.21-34.87,93.56,93.56,0,0,1-11-29.74l.65,100.22q-22.69-17-57.74-16-18.34.33-35.2,13.51t-27.2,34.21a97.8,97.8,0,0,0-10.35,43.72,107.07,107.07,0,0,0,10,46q10,21.36,27,33.87T537.32,605a92.64,92.64,0,0,0,31.7-5.67q15.68-5.67,26-14.68v18.69h65.07V411A90.75,90.75,0,0,1,638.6,401.57ZM589.21,529.45a40.85,40.85,0,0,1-13.52,13.68,32.43,32.43,0,0,1-17.35,5.17,31.09,31.09,0,0,1-16.85-5.17,38.71,38.71,0,0,1-13-13.51,34.2,34.2,0,0,1,5.68-42.22q10.5-10.51,24.19-10.51,14.34,0,25.2,10.51t10.84,24.53A33.28,33.28,0,0,1,589.21,529.45Z"/><path class="cls-1" d="M435.64,238.28Q450,254.8,449.32,284.83l-2,117.8H386.25l.33-78.42q0-24.36-6.5-34.71t-19.19-10.34a27.7,27.7,0,0,0-17.85,6q-7.52,6-9.18,20.36l.33,97.11h-60.4V224.76l59.73-1v17a118.33,118.33,0,0,1,29.7-13.68,111.14,111.14,0,0,1,33.38-5.34Q421.29,221.76,435.64,238.28Z"/><path class="cls-1" d="M557.28,201.23q-4.5,8.19-5.51,22.86l51.4.67-3.67,60.07-45.39-.67,5,117.8H490.7l-1.33-118.8L455,282.83l-6.34-60.07,40,.67-.33-23Q487,166.7,507.22,150t53.9-16.69a100.16,100.16,0,0,1,32.2,5A68.29,68.29,0,0,1,618.52,153l-2.34,47.39q-1-.66-10.68-6.17t-23.69-5.51a37.05,37.05,0,0,0-11.68,1.67A22,22,0,0,0,557.28,201.23Z"/><path class="cls-1" d="M925.2,228.93a62.86,62.86,0,0,1,20,16.52l-23,51.73q-9.68-13.35-26.36-13.35-18,0-26.86,12.85t-10.18,41.88v64.07H796.72V224.76h62.07v15.35a67.68,67.68,0,0,1,20.52-12.51,62.25,62.25,0,0,1,22.86-4.51A49.89,49.89,0,0,1,925.2,228.93Z"/><path class="cls-1" d="M1216.2,402.63h-64.74l-.34-92.77q0-18.36-4.17-25.36t-15.18-7q-8.36,0-13.52,10.18t-5.17,25.86l.33,6.34-.33-1v82.76l-62.74.67-.67-92.44q0-15.35-5.67-23.86a19.34,19.34,0,0,0-32.37.5q-5.68,9-5.67,25.69l.33,7-.33-.67,2.67,84.43H945.89V227.1l57.4-2,.33,13.35a63.88,63.88,0,0,1,21.19-10.34,96.23,96.23,0,0,1,27.2-3.67q30.71,0,46.39,15.68,8.34-9.33,22-13.35t35.71-4q31,0,45.22,24.53t14.51,79.25Z"/><polygon points="199.19 215.49 197.71 402.63 262.45 402.63 264.44 150.23 199.19 215.49"/><path d="M779,263.14a78.48,78.48,0,0,0-33-30.87q-21.36-10.85-50.06-10.85a99.61,99.61,0,0,0-43.55,10.35,92.15,92.15,0,0,0-35.71,30.37q-14.19,20-14.18,47.38A92.43,92.43,0,0,0,615,356.08,95.24,95.24,0,0,0,649.22,391a90.58,90.58,0,0,0,21.52,9.4,97.33,97.33,0,0,0,73.75-8.73,90.08,90.08,0,0,0,33.88-33.87q12.33-21.53,12.34-47.89Q790.71,283.16,779,263.14Zm-56.89,75.08q-9.2,9-23.2,9-16,0-26.36-9.84t-10.35-24.86q0-14.68,9.85-24.7t24.86-10q17,0,25.7,10.35t8.67,25.36Q731.31,329.22,722.14,338.22Z"/><path class="cls-1" d="M1018.21,447.85q23,24.38,23,66.41c0,4.68-.12,8.24-.34,10.68l-118.13,1.34A48.9,48.9,0,0,0,934,544.47a25.71,25.71,0,0,0,16.85,7.84q26.7,2,38.71-15.69l47.72,13.69a64.15,64.15,0,0,1-16.68,28.19A87.31,87.31,0,0,1,991,598a93.34,93.34,0,0,1-35.54,7,50.89,50.89,0,0,1-6.67-.33,85.06,85.06,0,0,1-42.55-15,96.33,96.33,0,0,1-31-35,99.53,99.53,0,0,1-11.51-47.38,67.17,67.17,0,0,1,.33-7.68,75,75,0,0,1,13.52-39.38,82.7,82.7,0,0,1,32-27q19.85-9.68,43.88-9.68Q995.19,423.49,1018.21,447.85ZM923.1,485.56l56.4.34q-1.34-9.67-7.84-15a26.26,26.26,0,0,0-14.85-6Q932.11,462.88,923.1,485.56Z"/><path class="cls-2" d="M754.58,473.22q-13.35,0-21.86,9.34t-8.51,24q0,14.69,8.51,24.19a27.26,27.26,0,0,0,21.19,9.51q13.68,0,23.36-10.34a34.08,34.08,0,0,0,9.68-24q0-14-9.35-23.36A31.31,31.31,0,0,0,754.58,473.22Z"/><path d="M804.63,425.16l-.33,11a90.72,90.72,0,0,0-25.86-10.51,128.7,128.7,0,0,0-31.54-3.83q-21.69,0-41,13a95.71,95.71,0,0,0-30.86,34,89.78,89.78,0,0,0-11.52,43.72,74.34,74.34,0,0,0,11,39.87,77.56,77.56,0,0,0,30,28,86.27,86.27,0,0,0,41.38,10.18,95.89,95.89,0,0,0,29-5A104.81,104.81,0,0,0,802,573v4.67a66.1,66.1,0,0,1-8.51,34.54q-8.84,15.51-32.53,15.52c-1.12,0-2.21,0-3.29-.12l-26,30.84,31,25.92c1.54,0,3.08.09,4.64.09q35,0,55.06-17.19t27.2-38.54q7.17-21.36,7.51-37.38l2-166.19ZM777.27,530q-9.69,10.35-23.36,10.34a27.26,27.26,0,0,1-21.19-9.51q-8.51-9.51-8.51-24.19t8.51-24q8.5-9.33,21.86-9.34a31.31,31.31,0,0,1,23,9.34q9.35,9.35,9.35,23.36A34.08,34.08,0,0,1,777.27,530Z"/></svg>