<svg xmlns="http://www.w3.org/2000/svg" viewBox="0 0 623.43 358.57"><defs><style>.cls-1{fill:#f1f2f2;}.cls-2{fill:none;stroke:#f1f2f2;stroke-miterlimit:10;stroke-width:8px;}</style></defs><title>InformEdge</title><g id="WHITE_OUTLINE"><path class="cls-1" d="M200.27,208.2q10.62,11.25,10.63,30.65c0,2.16-.06,3.8-.16,4.93l-54.52.62a22.42,22.42,0,0,0,5.16,8.39,11.81,11.81,0,0,0,7.78,3.62q12.32.93,17.86-7.24l22,6.32a29.69,29.69,0,0,1-7.7,13,40.24,40.24,0,0,1-13.63,9,43,43,0,0,1-16.41,3.24,23.62,23.62,0,0,1-3.08-.16,39.25,39.25,0,0,1-19.64-6.93,44.44,44.44,0,0,1-14.32-16.17A45.92,45.92,0,0,1,129,235.62a31.38,31.38,0,0,1,.15-3.54,34.63,34.63,0,0,1,6.24-18.18,38,38,0,0,1,14.78-12.47A45.58,45.58,0,0,1,170.39,197Q189.64,197,200.27,208.2Zm-43.9,17.41,26,.15a10.4,10.4,0,0,0-3.62-6.93,12.14,12.14,0,0,0-6.85-2.77Q160.53,215.13,156.37,225.61Z"/><path class="cls-1" d="M295.68,186.84a43.9,43.9,0,0,1-15.79-16.09A43.15,43.15,0,0,1,274.82,157l.3,46.25q-10.49-7.85-26.65-7.39-8.47.17-16.25,6.24a47,47,0,0,0-17.33,36,49.47,49.47,0,0,0,4.62,21.26A40,40,0,0,0,232,275a28,28,0,0,0,16.94,5.78,42.83,42.83,0,0,0,14.63-2.62,37.51,37.51,0,0,0,12-6.78V280h30v-88.8A41.61,41.61,0,0,1,295.68,186.84Zm-22.8,59a18.77,18.77,0,0,1-6.24,6.32,15,15,0,0,1-8,2.38,14.33,14.33,0,0,1-7.77-2.38,17.86,17.86,0,0,1-6-6.24,15.81,15.81,0,0,1,2.62-19.49,15.34,15.34,0,0,1,11.16-4.85,16.2,16.2,0,0,1,11.63,4.85,15.13,15.13,0,0,1,2.62,19.41Z"/><path class="cls-1" d="M202,111.48q6.63,7.62,6.32,21.48l-.93,54.37H179.21l.15-36.19q0-11.25-3-16a9.82,9.82,0,0,0-8.86-4.78,12.84,12.84,0,0,0-8.24,2.77q-3.47,2.77-4.23,9.4l.15,44.82H127.3V105.24l27.57-.47v7.86a54.21,54.21,0,0,1,13.71-6.31,51.08,51.08,0,0,1,15.4-2.47Q195.38,103.85,202,111.48Z"/><path class="cls-1" d="M258.15,94.38q-2.08,3.78-2.55,10.55l23.72.31L277.63,133l-20.95-.31L259,187H227.42l-.62-54.83L210.94,132,208,104.31l18.48.31L226.34,94q-.61-15.55,8.7-23.25T259.92,63a46,46,0,0,1,14.86,2.32,31.62,31.62,0,0,1,11.63,6.77L285.33,94q-.46-.3-4.93-2.85a21.84,21.84,0,0,0-10.93-2.54,17.13,17.13,0,0,0-5.39.77A10.14,10.14,0,0,0,258.15,94.38Z"/><path class="cls-1" d="M428,107.16a29,29,0,0,1,9.24,7.63l-10.62,23.87a14.24,14.24,0,0,0-12.17-6.16q-8.32,0-12.4,5.93t-4.7,19.33v29.57H368.65V105.24H397.3v7.08a31.23,31.23,0,0,1,9.47-5.77,28.76,28.76,0,0,1,10.56-2.08A23.05,23.05,0,0,1,428,107.16Z"/><path class="cls-1" d="M562.26,187.33H532.38l-.15-42.82c0-5.64-.65-9.55-1.93-11.7s-3.62-3.24-7-3.24q-3.84,0-6.23,4.7a26.16,26.16,0,0,0-2.39,11.94l.15,2.92-.15-.46v38.2l-29,.31-.31-42.67q0-7.08-2.61-11a8.92,8.92,0,0,0-14.94.23q-2.62,4.16-2.62,11.86l.15,3.23-.15-.3,1.23,39h-29V106.32l26.49-.93.16,6.16a29.55,29.55,0,0,1,9.78-4.77,44.38,44.38,0,0,1,12.55-1.7q14.17,0,21.41,7.24a21.32,21.32,0,0,1,10.17-6.16,60.31,60.31,0,0,1,16.48-1.85q14.33,0,20.87,11.32t6.7,36.58Z"/><polygon class="cls-1" points="92.87 100.96 92.19 187.33 122.07 187.33 122.99 70.84 92.87 100.96"/><path class="cls-1" d="M360.49,123a36.17,36.17,0,0,0-15.25-14.25q-9.86-5-23.1-5a46,46,0,0,0-20.1,4.77,42.57,42.57,0,0,0-16.48,14Q279,131.73,279,144.36a42.5,42.5,0,0,0,.7,7.76,43,43,0,0,0,5.07,13.72,43.85,43.85,0,0,0,15.79,16.1,41.61,41.61,0,0,0,9.93,4.34,44.93,44.93,0,0,0,34-4,41.57,41.57,0,0,0,15.64-15.64,43.67,43.67,0,0,0,5.69-22.1Q365.88,132.2,360.49,123ZM334.23,157.6a14.61,14.61,0,0,1-10.7,4.16,16.93,16.93,0,0,1-12.17-4.54,15.17,15.17,0,0,1-4.77-11.48,15.61,15.61,0,0,1,4.54-11.39,15.41,15.41,0,0,1,11.47-4.62q7.86,0,11.86,4.77a17.61,17.61,0,0,1,4,11.71Q338.47,153.44,334.23,157.6Z"/><path class="cls-1" d="M470.88,208.2q10.64,11.25,10.63,30.65c0,2.16-.05,3.8-.15,4.93l-54.53.62a22.42,22.42,0,0,0,5.16,8.39,11.83,11.83,0,0,0,7.78,3.62q12.32.93,17.87-7.24l22,6.32a29.51,29.51,0,0,1-7.7,13,40.14,40.14,0,0,1-13.63,9,43,43,0,0,1-16.4,3.24,23.4,23.4,0,0,1-3.08-.16,39.18,39.18,0,0,1-19.64-6.93,44.47,44.47,0,0,1-14.33-16.17,45.92,45.92,0,0,1-5.31-21.87,31.38,31.38,0,0,1,.15-3.54A34.63,34.63,0,0,1,406,213.9a38.13,38.13,0,0,1,14.79-12.47A45.57,45.57,0,0,1,441,197Q460.26,197,470.88,208.2ZM427,225.61l26,.15a10.44,10.44,0,0,0-3.62-6.93,12.17,12.17,0,0,0-6.86-2.77Q431.14,215.13,427,225.61Z"/><path class="cls-1" d="M372.31,197.73l-.16,5.08A41.7,41.7,0,0,0,360.22,198a59.31,59.31,0,0,0-14.56-1.77,33.32,33.32,0,0,0-18.94,6,44.09,44.09,0,0,0-14.25,15.71,41.47,41.47,0,0,0-5.31,20.17,34.34,34.34,0,0,0,5.08,18.41,35.85,35.85,0,0,0,13.86,12.94,39.87,39.87,0,0,0,19.1,4.7,44,44,0,0,0,13.4-2.32A48.26,48.26,0,0,0,371.08,266v2.16a30.56,30.56,0,0,1-3.93,15.94q-4.08,7.15-15,7.16c-.51,0-1,0-1.52-.05l-12,14.23,14.31,12c.71,0,1.42.05,2.14.05q16.17,0,25.41-7.94T393,291.68a59,59,0,0,0,3.47-17.25l.92-76.7Zm-12.63,48.36a14.21,14.21,0,0,1-10.78,4.78,12.6,12.6,0,0,1-9.78-4.39,16.12,16.12,0,0,1-3.93-11.17,15.83,15.83,0,0,1,3.93-11.09,13,13,0,0,1,10.09-4.31,14.45,14.45,0,0,1,10.62,4.31A14.62,14.62,0,0,1,364.15,235,15.72,15.72,0,0,1,359.68,246.09Z"/><path class="cls-2" d="M35.19,333.35,32.25,130.76,134.71,33.35H592.22V238.77l-97.38,92.59S30.12,328.53,35.19,333.35Z"/></g></svg>