<svg xmlns="http://www.w3.org/2000/svg" viewBox="0 0 623.43 358.57"><defs><style>.cls-1{fill:#f1f2f2;}.cls-2{fill:none;}</style></defs><title>InformEdge</title><g id="WHITE"><path class="cls-1" d="M187.48,210.1q10.62,11.25,10.63,30.65c0,2.16-.06,3.8-.16,4.93l-54.52.61a22.54,22.54,0,0,0,5.16,8.4,11.88,11.88,0,0,0,7.78,3.62q12.31.92,17.86-7.24l22,6.31a29.73,29.73,0,0,1-7.7,13,40.39,40.39,0,0,1-13.63,9,43,43,0,0,1-16.41,3.23,24,24,0,0,1-3.08-.15,39.25,39.25,0,0,1-19.64-6.93,44.6,44.6,0,0,1-14.32-16.17,46,46,0,0,1-5.31-21.87,31.71,31.71,0,0,1,.15-3.55,34.63,34.63,0,0,1,6.24-18.17,38.12,38.12,0,0,1,14.78-12.48,45.75,45.75,0,0,1,20.26-4.46Q176.85,198.86,187.48,210.1Zm-43.9,17.4,26,.16a10.36,10.36,0,0,0-3.62-6.93,12.15,12.15,0,0,0-6.85-2.78Q147.74,217,143.58,227.5Z"/><path class="cls-2" d="M245.85,223.5a15.35,15.35,0,0,0-11.17,4.85,15.81,15.81,0,0,0-2.62,19.49,17.92,17.92,0,0,0,6,6.23,14.27,14.27,0,0,0,7.78,2.39,14.88,14.88,0,0,0,8-2.39,18.74,18.74,0,0,0,6.24-6.31,15.13,15.13,0,0,0-2.62-19.41A16.19,16.19,0,0,0,245.85,223.5Z"/><path class="cls-1" d="M282.89,188.74a43.92,43.92,0,0,1-15.79-16.1A43.1,43.1,0,0,1,262,158.92l.3,46.25q-10.48-7.86-26.65-7.39-8.48.15-16.25,6.24a44.56,44.56,0,0,0-12.55,15.78A45.1,45.1,0,0,0,202.1,240a49.47,49.47,0,0,0,4.62,21.26,40,40,0,0,0,12.48,15.63,28,28,0,0,0,16.94,5.77A42.82,42.82,0,0,0,250.77,280a37.7,37.7,0,0,0,12-6.78v8.62h30v-88.8A41.58,41.58,0,0,1,282.89,188.74Zm-22.8,59a18.74,18.74,0,0,1-6.24,6.31,14.88,14.88,0,0,1-8,2.39,14.27,14.27,0,0,1-7.78-2.39,17.92,17.92,0,0,1-6-6.23,15.81,15.81,0,0,1,2.62-19.49,15.35,15.35,0,0,1,11.17-4.85,16.19,16.19,0,0,1,11.62,4.85,15.13,15.13,0,0,1,2.62,19.41Z"/><path class="cls-1" d="M189.22,113.37q6.61,7.62,6.31,21.49l-.92,54.37H166.42l.15-36.2q0-11.24-3-16a9.8,9.8,0,0,0-8.86-4.77,12.78,12.78,0,0,0-8.24,2.77q-3.47,2.78-4.23,9.4l.15,44.82H114.51v-82.1l27.57-.46v7.86a54.9,54.9,0,0,1,13.71-6.32,51.38,51.38,0,0,1,15.4-2.46Q182.59,105.75,189.22,113.37Z"/><path class="cls-1" d="M245.36,96.27q-2.09,3.78-2.54,10.56l23.71.3-1.69,27.73-20.95-.31,2.31,54.37H214.63L214,134.09l-15.86-.16-2.93-27.72,18.49.31-.16-10.63q-.62-15.56,8.7-23.26t24.88-7.7A46.24,46.24,0,0,1,262,67.24,31.42,31.42,0,0,1,273.62,74l-1.08,21.87c-.31-.2-2-1.16-4.93-2.85a21.84,21.84,0,0,0-10.93-2.54,17.13,17.13,0,0,0-5.39.77A10.12,10.12,0,0,0,245.36,96.27Z"/><path class="cls-1" d="M415.16,109.06a29,29,0,0,1,9.24,7.62l-10.62,23.88a14.24,14.24,0,0,0-12.17-6.16q-8.33,0-12.4,5.93t-4.7,19.32v29.58H355.87v-82.1h28.64v7.09a31.31,31.31,0,0,1,9.48-5.78,28.87,28.87,0,0,1,10.55-2.08A22.94,22.94,0,0,1,415.16,109.06Z"/><path class="cls-1" d="M549.47,189.23H519.59l-.15-42.82q0-8.47-1.93-11.71t-7-3.23q-3.84,0-6.23,4.7a26.14,26.14,0,0,0-2.39,11.93L502,151l-.15-.46v38.2l-29,.3-.31-42.66c0-4.72-.87-8.4-2.61-11a8.92,8.92,0,0,0-14.94.23q-2.62,4.16-2.62,11.86l.15,3.23-.15-.31,1.23,39h-29V108.21l26.5-.92.15,6.16a29.57,29.57,0,0,1,9.78-4.78A44.75,44.75,0,0,1,473.69,107q14.18,0,21.41,7.24a21.32,21.32,0,0,1,10.17-6.16,60.31,60.31,0,0,1,16.48-1.85q14.32,0,20.87,11.32t6.7,36.58Z"/><polygon class="cls-1" points="80.08 102.85 79.4 189.23 109.28 189.23 110.2 72.74 80.08 102.85"/><path class="cls-1" d="M347.7,124.85a36.2,36.2,0,0,0-15.24-14.25q-9.87-5-23.11-5a46.08,46.08,0,0,0-20.1,4.78,42.53,42.53,0,0,0-16.48,14q-6.54,9.24-6.54,21.87a42.61,42.61,0,0,0,.7,7.77A43.1,43.1,0,0,0,272,167.74a43.92,43.92,0,0,0,15.79,16.1,42,42,0,0,0,9.93,4.33,44.93,44.93,0,0,0,34-4,41.47,41.47,0,0,0,15.64-15.63,43.7,43.7,0,0,0,5.69-22.1Q353.09,134.09,347.7,124.85ZM321.44,159.5a14.65,14.65,0,0,1-10.7,4.16,16.93,16.93,0,0,1-12.17-4.54,15.19,15.19,0,0,1-4.77-11.48,15.62,15.62,0,0,1,4.54-11.4,15.41,15.41,0,0,1,11.47-4.62q7.86,0,11.86,4.78a17.59,17.59,0,0,1,4,11.7Q325.68,155.35,321.44,159.5Z"/><path class="cls-1" d="M458.09,210.1q10.64,11.25,10.63,30.65c0,2.16-.05,3.8-.15,4.93l-54.53.61a22.54,22.54,0,0,0,5.16,8.4,11.88,11.88,0,0,0,7.78,3.62q12.31.92,17.87-7.24l22,6.31a29.54,29.54,0,0,1-7.7,13,40.29,40.29,0,0,1-13.63,9,43,43,0,0,1-16.4,3.23,23.75,23.75,0,0,1-3.08-.15,39.18,39.18,0,0,1-19.64-6.93,44.63,44.63,0,0,1-14.33-16.17,46,46,0,0,1-5.31-21.87,31.71,31.71,0,0,1,.15-3.55,34.63,34.63,0,0,1,6.24-18.17A38.16,38.16,0,0,1,408,203.32a45.7,45.7,0,0,1,20.25-4.46Q447.47,198.86,458.09,210.1ZM414.2,227.5l26,.16a10.44,10.44,0,0,0-3.62-6.93,12.18,12.18,0,0,0-6.86-2.78Q418.35,217,414.2,227.5Z"/><path class="cls-2" d="M336.42,221.81a13,13,0,0,0-10.09,4.31,15.82,15.82,0,0,0-3.93,11.09,16.08,16.08,0,0,0,3.93,11.16,12.57,12.57,0,0,0,9.78,4.39A14.24,14.24,0,0,0,346.89,248a15.72,15.72,0,0,0,4.47-11.09A14.61,14.61,0,0,0,347,226.12,14.4,14.4,0,0,0,336.42,221.81Z"/><path class="cls-1" d="M359.52,199.63l-.15,5.08a41.89,41.89,0,0,0-11.94-4.85,59.25,59.25,0,0,0-14.56-1.77,33.39,33.39,0,0,0-18.94,6,44.17,44.17,0,0,0-14.25,15.71A41.51,41.51,0,0,0,294.37,240a34.36,34.36,0,0,0,5.08,18.41,35.82,35.82,0,0,0,13.86,12.93,39.78,39.78,0,0,0,19.1,4.7,44.31,44.31,0,0,0,13.4-2.31,48.43,48.43,0,0,0,12.48-5.85V270A30.57,30.57,0,0,1,354.36,286q-4.08,7.16-15,7.16c-.51,0-1,0-1.52-.05l-12,14.23,14.3,12c.71,0,1.42,0,2.14,0q16.17,0,25.41-7.93t12.56-17.79a59.31,59.31,0,0,0,3.46-17.25l.93-76.7ZM346.89,248a14.24,14.24,0,0,1-10.78,4.77,12.57,12.57,0,0,1-9.78-4.39,16.08,16.08,0,0,1-3.93-11.16,15.82,15.82,0,0,1,3.93-11.09,13,13,0,0,1,10.09-4.31A14.4,14.4,0,0,1,347,226.12a14.61,14.61,0,0,1,4.32,10.78A15.72,15.72,0,0,1,346.89,248Z"/></g></svg>