<svg xmlns="http://www.w3.org/2000/svg" viewBox="0 0 1338.29 762.29"><defs><style>.cls-1{fill:#f1f2f2;}.cls-2{fill:none;stroke:#f1f2f2;stroke-miterlimit:10;stroke-width:14px;}</style></defs><title>InformEdge</title><g id="WHITE_OUTLINE"><path class="cls-1" d="M431.32,444.92q23,24.36,23,66.41,0,7-.33,10.68l-118.14,1.33a48.94,48.94,0,0,0,11.18,18.19,25.68,25.68,0,0,0,16.85,7.84q26.7,2,38.72-15.68l47.72,13.68a64.26,64.26,0,0,1-16.69,28.2,87.24,87.24,0,0,1-29.53,19.52,93.35,93.35,0,0,1-35.54,7,50.72,50.72,0,0,1-6.68-.34,85,85,0,0,1-42.55-15,96.35,96.35,0,0,1-31-35,99.46,99.46,0,0,1-11.51-47.39,65,65,0,0,1,.33-7.68,75.08,75.08,0,0,1,13.51-39.38,82.7,82.7,0,0,1,32-27q19.86-9.68,43.89-9.67Q408.28,420.56,431.32,444.92Zm-95.11,37.71,56.39.33q-1.34-9.68-7.84-15a26.22,26.22,0,0,0-14.85-6Q345.21,459.93,336.21,482.63Z"/><path class="cls-1" d="M638,398.63a95.09,95.09,0,0,1-34.21-34.87,93.23,93.23,0,0,1-11-29.74l.64,100.22q-22.69-17-57.73-16-18.36.33-35.21,13.51t-27.19,34.21A97.83,97.83,0,0,0,463,509.66a107.21,107.21,0,0,0,10,46.05q10,21.36,27,33.87t36.71,12.52a92.71,92.71,0,0,0,31.71-5.68q15.67-5.67,26-14.68v18.69h65.08V408A90,90,0,0,1,638,398.63Zm-49.4,127.88a40.73,40.73,0,0,1-13.51,13.68,32.47,32.47,0,0,1-17.35,5.18,31.13,31.13,0,0,1-16.86-5.18,38.69,38.69,0,0,1-13-13.51,34.22,34.22,0,0,1,5.67-42.22q10.51-10.51,24.2-10.51,14.34,0,25.19,10.51T593.82,509A33.29,33.29,0,0,1,588.64,526.51Z"/><path class="cls-1" d="M435.08,235.34q14.34,16.51,13.68,46.55l-2,117.8H385.69l.33-78.42q0-24.36-6.51-34.71t-19.19-10.34a27.74,27.74,0,0,0-17.85,6q-7.5,6-9.18,20.36l.34,97.11h-60.4V221.82l59.73-1v17a118,118,0,0,1,29.7-13.68A111.12,111.12,0,0,1,396,218.82Q420.72,218.82,435.08,235.34Z"/><path class="cls-1" d="M556.72,198.3q-4.51,8.17-5.51,22.85l51.39.67-3.67,60.07-45.38-.67,5,117.8H490.14l-1.33-118.8-34.38-.33-6.34-60.07,40.05.67-.34-23q-1.33-33.71,18.86-50.39t53.89-16.69a100.18,100.18,0,0,1,32.21,5A68.16,68.16,0,0,1,618,150.07l-2.33,47.39q-1-.66-10.68-6.17t-23.69-5.51a37,37,0,0,0-11.68,1.67A22,22,0,0,0,556.72,198.3Z"/><path class="cls-1" d="M924.63,226a63,63,0,0,1,20,16.52l-23,51.73q-9.69-13.35-26.36-13.35-18,0-26.87,12.85t-10.18,41.88v64.07H796.15V221.82h62.07v15.35a67.73,67.73,0,0,1,20.53-12.51,62.41,62.41,0,0,1,22.86-4.51A49.85,49.85,0,0,1,924.63,226Z"/><path class="cls-1" d="M1215.63,399.69h-64.74l-.33-92.77q0-18.35-4.17-25.36c-2.79-4.67-7.84-7-15.19-7q-8.34,0-13.51,10.18t-5.17,25.86l.33,6.34-.33-1v82.76l-62.74.67-.67-92.44q0-15.35-5.67-23.86a19.34,19.34,0,0,0-32.37.5q-5.69,9-5.68,25.7l.34,7-.34-.66,2.67,84.43H945.33V224.16l57.39-2,.34,13.34a64.07,64.07,0,0,1,21.19-10.34,96.13,96.13,0,0,1,27.2-3.67q30.69,0,46.38,15.68,8.34-9.33,22-13.35t35.7-4q31.05,0,45.22,24.53t14.52,79.26Z"/><polygon class="cls-1" points="198.62 212.55 197.14 399.69 261.88 399.69 263.88 147.29 198.62 212.55"/><path class="cls-1" d="M778.47,260.2a78.45,78.45,0,0,0-33-30.87q-21.36-10.85-50.06-10.84a99.69,99.69,0,0,0-43.54,10.34,92.08,92.08,0,0,0-35.71,30.37q-14.19,20-14.19,47.39a92.64,92.64,0,0,0,12.52,46.55A95.14,95.14,0,0,0,648.65,388a90.24,90.24,0,0,0,21.53,9.4,97.33,97.33,0,0,0,73.75-8.73,90,90,0,0,0,33.87-33.87q12.35-21.53,12.35-47.89Q790.15,280.22,778.47,260.2Zm-56.9,75.09q-9.18,9-23.19,9-16,0-26.36-9.85t-10.35-24.86q0-14.68,9.84-24.7t24.87-10q17,0,25.69,10.35t8.68,25.36Q730.75,326.28,721.57,335.29Z"/><path class="cls-1" d="M1017.65,444.92q23,24.36,23,66.41,0,7-.33,10.68L922.2,523.34a48.94,48.94,0,0,0,11.18,18.19,25.68,25.68,0,0,0,16.85,7.84q26.7,2,38.72-15.68l47.72,13.68a64.26,64.26,0,0,1-16.69,28.2,87.24,87.24,0,0,1-29.53,19.52,93.35,93.35,0,0,1-35.54,7,50.72,50.72,0,0,1-6.68-.34,85,85,0,0,1-42.55-15,96.35,96.35,0,0,1-31-35,99.46,99.46,0,0,1-11.51-47.39,65,65,0,0,1,.33-7.68A75.08,75.08,0,0,1,877,457.26a82.7,82.7,0,0,1,32-27q19.86-9.68,43.89-9.67Q994.61,420.56,1017.65,444.92Zm-95.11,37.71,56.39.33q-1.33-9.68-7.84-15a26.22,26.22,0,0,0-14.85-6Q931.54,459.93,922.54,482.63Z"/><path class="cls-1" d="M804.07,422.22l-.33,11a90.63,90.63,0,0,0-25.87-10.52,128.56,128.56,0,0,0-31.53-3.83q-21.71,0-41.05,13a95.82,95.82,0,0,0-30.87,34,89.91,89.91,0,0,0-11.51,43.72,74.46,74.46,0,0,0,11,39.88,77.56,77.56,0,0,0,30,28,86.27,86.27,0,0,0,41.38,10.18,95.94,95.94,0,0,0,29-5,105.13,105.13,0,0,0,27-12.68v4.67a66.17,66.17,0,0,1-8.51,34.54Q784,624.8,760.35,624.79c-1.11,0-2.21,0-3.29-.11l-26,30.83,31,25.92c1.53.05,3.07.09,4.63.09q35,0,55.07-17.19T849,625.79q7.18-21.36,7.51-37.38l2-166.19ZM776.71,527q-9.69,10.35-23.37,10.35a27.29,27.29,0,0,1-21.19-9.51q-8.5-9.52-8.51-24.2t8.51-24q8.52-9.33,21.86-9.34a31.34,31.34,0,0,1,23,9.34q9.33,9.35,9.34,23.36A34.07,34.07,0,0,1,776.71,527Z"/><path class="cls-2" d="M73.65,716.06,67.27,277.11l222-211h991.28V511.15l-211,200.61S62.66,705.61,73.65,716.06Z"/></g></svg>