<svg xmlns="http://www.w3.org/2000/svg" viewBox="0 0 1338.29 762.29"><defs><style>.cls-1{fill:#f1f2f2;}.cls-2{fill:none;}</style></defs><title>InformEdge</title><g id="WHITE"><path class="cls-1" d="M410.42,421.72q23,24.36,23,66.41,0,7-.33,10.68L315,500.14a48.94,48.94,0,0,0,11.18,18.19A25.71,25.71,0,0,0,343,526.17q26.69,2,38.71-15.68l47.72,13.68a64.26,64.26,0,0,1-16.69,28.2,87.24,87.24,0,0,1-29.53,19.52,93.35,93.35,0,0,1-35.54,7,50.72,50.72,0,0,1-6.68-.34,85,85,0,0,1-42.54-15,96.4,96.4,0,0,1-31-35,99.46,99.46,0,0,1-11.51-47.39,67.29,67.29,0,0,1,.33-7.68,75,75,0,0,1,13.52-39.38,82.59,82.59,0,0,1,32-27q19.86-9.67,43.89-9.67Q387.38,397.36,410.42,421.72Zm-95.11,37.71,56.4.33q-1.35-9.67-7.85-15a26.29,26.29,0,0,0-14.85-6Q324.32,436.73,315.31,459.43Z"/><path class="cls-2" d="M536.88,450.75q-13.7,0-24.2,10.51A34.22,34.22,0,0,0,507,503.48,38.69,38.69,0,0,0,520,517a31.13,31.13,0,0,0,16.86,5.18A32.47,32.47,0,0,0,554.23,517a40.86,40.86,0,0,0,13.52-13.68,33.37,33.37,0,0,0,5.17-17.52q0-14-10.85-24.53T536.88,450.75Z"/><path class="cls-1" d="M617.14,375.43a95.09,95.09,0,0,1-34.21-34.87,93.47,93.47,0,0,1-11-29.74L572.59,411q-22.71-17-57.74-16-18.36.33-35.21,13.52t-27.19,34.2a97.83,97.83,0,0,0-10.35,43.72,107.18,107.18,0,0,0,10,46.05q10,21.36,27,33.87t36.71,12.52a92.71,92.71,0,0,0,31.71-5.68q15.68-5.67,26-14.68v18.69h65.07V384.83A90,90,0,0,1,617.14,375.43ZM567.75,503.31A40.86,40.86,0,0,1,554.23,517a32.47,32.47,0,0,1-17.35,5.18A31.13,31.13,0,0,1,520,517a38.69,38.69,0,0,1-13-13.51,34.22,34.22,0,0,1,5.67-42.22q10.52-10.51,24.2-10.51,14.34,0,25.19,10.51t10.85,24.53A33.37,33.37,0,0,1,567.75,503.31Z"/><path class="cls-1" d="M414.18,212.14q14.34,16.52,13.68,46.55l-2,117.8H364.79l.33-78.42q0-24.36-6.51-34.71T339.43,253a27.7,27.7,0,0,0-17.86,6q-7.5,6-9.18,20.35l.34,97.11h-60.4V198.62l59.73-1v17A118.17,118.17,0,0,1,341.76,201a111.12,111.12,0,0,1,33.37-5.34Q399.82,195.62,414.18,212.14Z"/><path class="cls-1" d="M535.82,175.1q-4.52,8.18-5.51,22.86l51.39.66L578,258.69,532.65,258l5,117.81H469.24L467.91,257l-34.38-.33-6.34-60.07,40.05.67-.33-23q-1.35-33.7,18.85-50.39t53.9-16.69a100.16,100.16,0,0,1,32.2,5,68.29,68.29,0,0,1,25.2,14.68l-2.34,47.39q-1-.66-10.68-6.17t-23.69-5.51a37,37,0,0,0-11.68,1.67A22,22,0,0,0,535.82,175.1Z"/><path class="cls-1" d="M903.73,202.79a63,63,0,0,1,20,16.52l-23,51.73q-9.68-13.35-26.36-13.35-18,0-26.87,12.85t-10.18,41.88v64.07H775.25V198.62h62.07V214a67.73,67.73,0,0,1,20.53-12.51A62.41,62.41,0,0,1,880.71,197,49.85,49.85,0,0,1,903.73,202.79Z"/><path class="cls-1" d="M1194.74,376.49H1130l-.34-92.77q0-18.35-4.17-25.36t-15.18-7q-8.36,0-13.52,10.18t-5.17,25.86l.33,6.34-.33-1v82.76l-62.74.67-.67-92.44q0-15.35-5.67-23.86a19.34,19.34,0,0,0-32.37.5q-5.68,9-5.68,25.7l.34,7-.34-.66,2.67,84.43H924.43V201l57.39-2,.34,13.34A64.07,64.07,0,0,1,1003.35,202a96.18,96.18,0,0,1,27.2-3.67q30.69,0,46.38,15.68,8.34-9.33,22-13.35t35.71-4q31,0,45.22,24.53t14.51,79.26Z"/><polygon class="cls-1" points="177.72 189.35 176.25 376.49 240.99 376.49 242.98 124.09 177.72 189.35"/><path class="cls-1" d="M757.57,237a78.45,78.45,0,0,0-33-30.87q-21.36-10.84-50-10.84a99.7,99.7,0,0,0-43.55,10.34A92.08,92.08,0,0,0,595.22,236Q581,256,581,283.39a92.43,92.43,0,0,0,12.51,46.55,95.09,95.09,0,0,0,34.21,34.87,90,90,0,0,0,21.52,9.4A97.33,97.33,0,0,0,723,365.48a90,90,0,0,0,33.87-33.87q12.35-21.53,12.35-47.89Q769.25,257,757.57,237Zm-56.9,75.09q-9.18,9-23.19,9-16,0-26.36-9.85t-10.35-24.86q0-14.68,9.85-24.7t24.86-10q17,0,25.69,10.35t8.68,25.36Q709.85,303.08,700.67,312.09Z"/><path class="cls-1" d="M996.75,421.72q23,24.36,23,66.41,0,7-.33,10.68L901.3,500.14a48.94,48.94,0,0,0,11.18,18.19,25.71,25.71,0,0,0,16.86,7.84q26.68,2,38.71-15.68l47.72,13.68a64.26,64.26,0,0,1-16.69,28.2,87.24,87.24,0,0,1-29.53,19.52,93.35,93.35,0,0,1-35.54,7,50.72,50.72,0,0,1-6.68-.34,85,85,0,0,1-42.54-15,96.49,96.49,0,0,1-31-35,99.46,99.46,0,0,1-11.51-47.39,67.29,67.29,0,0,1,.33-7.68,75,75,0,0,1,13.52-39.38,82.59,82.59,0,0,1,32-27Q908,397.36,932,397.36,973.71,397.36,996.75,421.72Zm-95.11,37.71,56.4.33q-1.35-9.67-7.85-15a26.26,26.26,0,0,0-14.85-6Q910.65,436.73,901.64,459.43Z"/><path class="cls-2" d="M733.11,447.08q-13.35,0-21.85,9.34t-8.51,24q0,14.69,8.51,24.2a27.26,27.26,0,0,0,21.19,9.51q13.68,0,23.36-10.35a34.07,34.07,0,0,0,9.67-24q0-14-9.34-23.36A31.34,31.34,0,0,0,733.11,447.08Z"/><path class="cls-1" d="M783.17,399l-.33,11A90.63,90.63,0,0,0,757,399.52a128.56,128.56,0,0,0-31.53-3.83q-21.71,0-41.05,13a95.82,95.82,0,0,0-30.87,34A89.91,89.91,0,0,0,642,486.46a74.46,74.46,0,0,0,11,39.88,77.63,77.63,0,0,0,30,28,86.27,86.27,0,0,0,41.38,10.18,95.94,95.94,0,0,0,29-5,104.81,104.81,0,0,0,27-12.68v4.67A66.17,66.17,0,0,1,772,586.07q-8.85,15.52-32.54,15.52c-1.11,0-2.21,0-3.29-.11l-26,30.83,31,25.92c1.53,0,3.07.09,4.63.09q35,0,55.07-17.19t27.2-38.54q7.17-21.36,7.5-37.37l2-166.2ZM755.81,503.81q-9.69,10.35-23.36,10.35a27.26,27.26,0,0,1-21.19-9.51q-8.52-9.51-8.51-24.2t8.51-24q8.5-9.33,21.85-9.34a31.34,31.34,0,0,1,23,9.34q9.35,9.34,9.34,23.36A34.07,34.07,0,0,1,755.81,503.81Z"/></g></svg>