<svg xmlns="http://www.w3.org/2000/svg" viewBox="0 0 2048 1148"><defs><style>.cls-1{fill:#f1f2f2;}</style></defs><title>InformEdge</title><g id="WHITE_NEGATIVE"><path class="cls-1" d="M1006.31,486.44q16,15.27,40.9,15.27,21.74,0,36-14t14.24-38.31q0-23.3-13.46-39.35T1044.1,394q-23.29,0-38.57,15.53t-15.27,38.32Q990.26,471.17,1006.31,486.44Z"/><path class="cls-1" d="M560.66,693.54a40.65,40.65,0,0,0-23-9.32q-38.31-3.12-52.29,32.09l87.5.52Q570.76,701.83,560.66,693.54Z"/><path class="cls-1" d="M78,1078.47v-.5A.31.31,0,0,0,78,1078.47Z"/><path class="cls-1" d="M1470.3,693.54a40.67,40.67,0,0,0-23-9.32q-38.33-3.12-52.29,32.09l87.49.52Q1480.39,701.83,1470.3,693.54Z"/><path class="cls-1" d="M412.51,70.06,68.11,397.48,78,1078c15.3-15.51,1545.05-6.18,1545.05-6.18l327.35-311.22V70.06ZM1198.89,311.7h96.3v23.82A105.27,105.27,0,0,1,1327,316.1a96.78,96.78,0,0,1,35.47-7,77.35,77.35,0,0,1,35.72,9.07,97.39,97.39,0,0,1,31.06,25.62l-35.72,80.25q-15-20.7-40.9-20.71-28,0-41.68,19.93t-15.79,65v99.4h-96.3ZM975,322.58q33.4-16.05,67.57-16.05,44.52,0,77.66,16.82t51.25,47.89q18.12,31.06,18.12,72.48,0,40.9-19.15,74.3a139.76,139.76,0,0,1-52.55,52.55q-33.39,19.15-73.78,19.15a145.87,145.87,0,0,1-40.64-5.61,140.1,140.1,0,0,1-33.39-14.58A147.62,147.62,0,0,1,917,515.43a143.44,143.44,0,0,1-19.41-72.22q0-42.45,22-73.52A142.79,142.79,0,0,1,975,322.58ZM370,587.65H269.59l2.29-290.33L373.12,196.08ZM387.62,311.7l92.68-1.55v26.4q19.67-12.93,46.08-21.22A172.41,172.41,0,0,1,578.15,307q38.31,0,60.57,25.63T660,404.89l-3.11,182.76H562.1L562.62,466q0-37.8-10.1-53.85t-29.77-16.05q-16.05,0-27.7,9.32T480.82,437l.51,150.66H387.62ZM668.09,777.41l-183.27,2.07q6.21,17.09,17.34,28.21a39.82,39.82,0,0,0,26.14,12.17q41.41,3.1,60.06-24.33l74,21.22q-6.74,24.35-25.89,43.75a135.4,135.4,0,0,1-45.82,30.29,144.72,144.72,0,0,1-55.14,10.87,78.93,78.93,0,0,1-10.35-.52,132,132,0,0,1-66-23.3A149.65,149.65,0,0,1,411,823.49Q393.17,789.83,393.18,750a101.89,101.89,0,0,1,.52-11.91q2.06-34.17,21-61.09T464.37,635q30.79-15,68.08-15,64.71,0,100.44,37.79t35.72,103Q668.61,771.72,668.09,777.41ZM658.91,308.6l62.13,1-.52-35.72q-2.07-52.29,29.25-78.18t83.62-25.88a155.72,155.72,0,0,1,50,7.76q23,7.77,39.09,22.78l-3.63,73.52q-1.54-1-16.57-9.58t-36.75-8.54a57.18,57.18,0,0,0-18.12,2.59q-12.95,4.14-19.94,16.82t-8.54,35.47l79.73,1-5.69,93.19-70.41-1,7.76,182.76H724.15L722.08,402.3l-53.33-.51ZM987,899.07H886v-29q-16.06,14-40.39,22.78a143.79,143.79,0,0,1-49.18,8.8q-30.56,0-57-19.41T697.58,829.7A166.14,166.14,0,0,1,682,758.25a151.78,151.78,0,0,1,16.05-67.82q16-32.62,42.2-53.07t54.62-21q54.36-1.54,89.56,24.86l-1-155.48a145.2,145.2,0,0,0,17,46.13A147.73,147.73,0,0,0,953.59,586,140.24,140.24,0,0,0,987,600.58Zm305.48-18.63q-.53,24.84-11.65,58t-42.19,59.8q-31.06,26.65-85.43,26.66c-2.42,0-4.81-.06-7.19-.14l-48.08-40.22,40.33-47.83c1.68.12,3.38.18,5.11.18q36.75,0,50.47-24.08T1207,859.21V852q-17.61,11.91-41.94,19.67t-45,7.77a133.9,133.9,0,0,1-64.2-15.79,120.38,120.38,0,0,1-46.6-43.49q-17.07-27.69-17.08-61.87,0-35.21,17.86-67.82a148.5,148.5,0,0,1,47.89-52.81q30-20.19,63.68-20.19a199.43,199.43,0,0,1,48.93,6q23.55,6,40.12,16.31l.52-17.08h84.39Zm285.26-103-183.27,2.07q6.21,17.09,17.34,28.21a39.82,39.82,0,0,0,26.15,12.17q41.41,3.1,60.06-24.33l74,21.22q-6.73,24.35-25.89,43.75a135.3,135.3,0,0,1-45.82,30.29,144.7,144.7,0,0,1-55.13,10.87,79.1,79.1,0,0,1-10.36-.52,132,132,0,0,1-66-23.3,149.65,149.65,0,0,1-48.15-54.35q-17.85-33.66-17.86-73.52a101.89,101.89,0,0,1,.52-11.91q2.06-34.17,21-61.09T1374,635q30.8-15,68.08-15,64.71,0,100.44,37.79t35.72,103Q1578.24,771.72,1577.72,777.41Zm171.52-189.76-.52-143.93q0-28.46-6.47-39.34t-23.56-10.88q-12.95,0-21,15.8t-8,40.12l.52,9.83-.52-1.55V586.1l-97.33,1-1-143.41q0-23.81-8.8-37t-24.85-13.21q-16.58,0-25.37,14t-8.8,39.87l.52,10.87-.52-1,4.14,131h-97.33V315.33l89-3.11.52,20.71q13.45-10.35,32.87-16.05a149.67,149.67,0,0,1,42.2-5.69q47.63,0,72,24.33,12.93-14.49,34.17-20.71t55.4-6.21q48.15,0,70.15,38t22.52,123l.52,118Z"/><path class="cls-1" d="M1164.44,781q-15,16.05-36.24,16.05a42.31,42.31,0,0,1-32.88-14.76q-13.2-14.75-13.2-37.53t13.2-37.28q13.2-14.49,33.91-14.49,21.23,0,35.73,14.49t14.49,36.24Q1179.45,765,1164.44,781Z"/><path class="cls-1" d="M871.82,782.68a63.34,63.34,0,0,1-21,21.23,50.43,50.43,0,0,1-26.93,8q-13.47,0-26.14-8a60.14,60.14,0,0,1-20.19-21A52.85,52.85,0,0,1,770.09,756q0-22.26,16.31-38.57t37.53-16.31q22.26,0,39.09,16.31t16.83,38A51.68,51.68,0,0,1,871.82,782.68Z"/></g></svg>