<svg xmlns="http://www.w3.org/2000/svg" viewBox="0 0 623.43 358.57"><defs><style>.cls-1{fill:#231f20;}</style></defs><title>InformEdge</title><g id="BLACK_NEGATIVE"><path class="cls-1" d="M310.68,160.15a16.9,16.9,0,0,0,12.16,4.54,14.63,14.63,0,0,0,10.71-4.16q4.23-4.16,4.23-11.39a17.6,17.6,0,0,0-4-11.71q-4-4.77-11.86-4.77a15.43,15.43,0,0,0-11.48,4.62,15.61,15.61,0,0,0-4.54,11.39A15.14,15.14,0,0,0,310.68,160.15Z"/><path class="cls-1" d="M178.1,221.76a12.17,12.17,0,0,0-6.86-2.77q-11.4-.93-15.55,9.55l26,.15A10.4,10.4,0,0,0,178.1,221.76Z"/><path class="cls-1" d="M34.51,336.28v-.15A.09.09,0,0,0,34.51,336.28Z"/><path class="cls-1" d="M448.71,221.76a12.14,12.14,0,0,0-6.85-2.77q-11.4-.93-15.56,9.55l26,.15A10.4,10.4,0,0,0,448.71,221.76Z"/><path class="cls-1" d="M134,36.28,31.56,133.69,34.5,336.13c4.55-4.62,459.65-1.84,459.65-1.84l97.39-92.59V36.28Zm234,71.89h28.65v7.08a31.23,31.23,0,0,1,9.47-5.77,28.7,28.7,0,0,1,10.55-2.08,23.09,23.09,0,0,1,10.63,2.69,29,29,0,0,1,9.24,7.63l-10.63,23.87a14.23,14.23,0,0,0-12.17-6.16q-8.31,0-12.39,5.93t-4.7,19.33v29.57H368Zm-66.61,3.23a46,46,0,0,1,20.1-4.77q13.25,0,23.1,5a36.28,36.28,0,0,1,15.25,14.25,42.05,42.05,0,0,1,5.39,21.56,43.58,43.58,0,0,1-5.7,22.1,41.54,41.54,0,0,1-15.63,15.64,44.93,44.93,0,0,1-34,4,41.68,41.68,0,0,1-9.94-4.34,43.9,43.9,0,0,1-15.78-16.1,42.52,42.52,0,0,1-5.78-21.48q0-12.63,6.55-21.87A42.42,42.42,0,0,1,301.36,111.4Zm-180,78.86H91.5l.69-86.37L122.3,73.77Zm5.24-82.09,27.57-.47v7.86a54.21,54.21,0,0,1,13.71-6.31,51,51,0,0,1,15.4-2.47q11.4,0,18,7.62t6.31,21.49l-.92,54.37H178.52l.16-36.19q0-11.25-3-16a9.81,9.81,0,0,0-8.85-4.78,12.82,12.82,0,0,0-8.24,2.77q-3.47,2.78-4.24,9.4l.16,44.82H126.62Zm83.44,138.54-54.53.62a22.55,22.55,0,0,0,5.16,8.39,11.83,11.83,0,0,0,7.78,3.62q12.32.93,17.87-7.24l22,6.32a29.51,29.51,0,0,1-7.7,13,40.14,40.14,0,0,1-13.63,9,43,43,0,0,1-16.4,3.24,23.4,23.4,0,0,1-3.08-.16,39.21,39.21,0,0,1-19.64-6.93,44.47,44.47,0,0,1-14.33-16.17,45.92,45.92,0,0,1-5.31-21.87,31.38,31.38,0,0,1,.15-3.54,34.63,34.63,0,0,1,6.24-18.18,38.13,38.13,0,0,1,14.79-12.47,45.57,45.57,0,0,1,20.25-4.47q19.26,0,29.88,11.24t10.63,30.65C210.21,243.94,210.16,245.58,210.06,246.71Zm-2.73-139.47,18.48.31-.15-10.63q-.63-15.56,8.7-23.25T259.23,66a46,46,0,0,1,14.87,2.32,31.44,31.44,0,0,1,11.62,6.77l-1.07,21.87c-.31-.2-2-1.15-4.93-2.85a21.88,21.88,0,0,0-10.94-2.54,17.17,17.17,0,0,0-5.39.77,10.17,10.17,0,0,0-5.93,5q-2.08,3.78-2.54,10.55l23.72.31-1.7,27.72L256,135.58,258.31,190H226.73l-.61-54.83L210.25,135Zm97.6,175.67h-30v-8.63a37.45,37.45,0,0,1-12,6.78,42.87,42.87,0,0,1-14.63,2.62,28.07,28.07,0,0,1-16.95-5.78,40.06,40.06,0,0,1-12.47-15.63A49.47,49.47,0,0,1,214.21,241a46.92,46.92,0,0,1,17.32-36q7.78-6.09,16.25-6.24,16.18-.47,26.65,7.39l-.3-46.25a42.94,42.94,0,0,0,5.08,13.73A44,44,0,0,0,295,189.77a41.68,41.68,0,0,0,9.94,4.34Zm90.88-5.55a59.36,59.36,0,0,1-3.47,17.25q-3.31,9.86-12.55,17.79t-25.42,7.93c-.72,0-1.43,0-2.14,0l-14.3-12,12-14.23c.5,0,1,0,1.52,0q10.94,0,15-7.16a30.56,30.56,0,0,0,3.93-15.94v-2.16a48.19,48.19,0,0,1-12.47,5.85,44.08,44.08,0,0,1-13.4,2.32,39.87,39.87,0,0,1-19.1-4.7,35.71,35.71,0,0,1-13.86-12.94A34.35,34.35,0,0,1,306.47,241a41.37,41.37,0,0,1,5.32-20.17A44.15,44.15,0,0,1,326,205.13a33.35,33.35,0,0,1,19-6,59.17,59.17,0,0,1,14.55,1.77,41.89,41.89,0,0,1,11.94,4.85l.15-5.08h25.11Zm84.86-30.65-54.52.62a22.42,22.42,0,0,0,5.16,8.39,11.81,11.81,0,0,0,7.77,3.62q12.33.93,17.87-7.24l22,6.32a29.69,29.69,0,0,1-7.7,13,40.18,40.18,0,0,1-13.64,9,43,43,0,0,1-16.4,3.24,23.62,23.62,0,0,1-3.08-.16,39.25,39.25,0,0,1-19.64-6.93,44.44,44.44,0,0,1-14.32-16.17,45.92,45.92,0,0,1-5.31-21.87A31.38,31.38,0,0,1,399,235a34.63,34.63,0,0,1,6.24-18.18,38,38,0,0,1,14.78-12.47,45.58,45.58,0,0,1,20.26-4.47q19.24,0,29.88,11.24t10.63,30.65C480.83,243.94,480.77,245.58,480.67,246.71Zm51-56.45-.16-42.82c0-5.64-.64-9.55-1.92-11.7s-3.62-3.24-7-3.24q-3.86,0-6.24,4.7A26.29,26.29,0,0,0,514,149.14l.16,2.92-.16-.46v38.2l-29,.31-.31-42.67q0-7.08-2.62-11a8.92,8.92,0,0,0-14.94.23q-2.62,4.16-2.62,11.86l.16,3.23-.16-.3,1.23,39H436.82V109.25l26.49-.93.15,6.16a29.55,29.55,0,0,1,9.78-4.77A44.5,44.5,0,0,1,485.8,108q14.16,0,21.41,7.24a21.24,21.24,0,0,1,10.16-6.16,60.36,60.36,0,0,1,16.48-1.85q14.32,0,20.87,11.32t6.7,36.58l.16,35.12Z"/><path d="M357.72,247.79a14.24,14.24,0,0,1-10.78,4.77,12.59,12.59,0,0,1-9.78-4.38A16.12,16.12,0,0,1,333.23,237a15.82,15.82,0,0,1,3.93-11.09,13,13,0,0,1,10.09-4.31,14.45,14.45,0,0,1,10.62,4.31,14.61,14.61,0,0,1,4.32,10.78A15.72,15.72,0,0,1,357.72,247.79Z"/><path d="M270.67,248.28a19,19,0,0,1-6.24,6.32,15,15,0,0,1-8,2.38,14.39,14.39,0,0,1-7.78-2.38,17.86,17.86,0,0,1-6-6.24,15.81,15.81,0,0,1,2.62-19.49A15.38,15.38,0,0,1,256.42,224a16.23,16.23,0,0,1,11.63,4.85,15.16,15.16,0,0,1,2.62,19.41Z"/></g></svg>