<svg xmlns="http://www.w3.org/2000/svg" viewBox="0 0 1338.29 762.29"><defs><style>.cls-1{fill:#231f20;}</style></defs><title>InformEdge</title><g id="BLACK_NEGATIVE"><path class="cls-1" d="M668,336q10.34,9.86,26.36,9.85,14,0,23.19-9t9.18-24.7q0-15-8.68-25.36t-25.69-10.34q-15,0-24.87,10t-9.84,24.69Q657.62,326.15,668,336Z"/><path class="cls-1" d="M380.71,469.49a26.24,26.24,0,0,0-14.85-6q-24.69-2-33.7,20.69l56.4.33Q387.21,474.83,380.71,469.49Z"/><path class="cls-1" d="M69.6,717.6v-.32A.2.2,0,0,0,69.6,717.6Z"/><path class="cls-1" d="M967,469.49a26.21,26.21,0,0,0-14.85-6q-24.69-2-33.7,20.69l56.4.33Q973.54,474.83,967,469.49Z"/><path class="cls-1" d="M285.22,67.6l-222,211.06,6.37,438.62c9.86-10,995.91-4,995.91-4l211-200.6V67.6ZM792.1,223.36h62.07v15.36A67.76,67.76,0,0,1,874.7,226.2a62.4,62.4,0,0,1,22.86-4.5,49.85,49.85,0,0,1,23,5.84,62.86,62.86,0,0,1,20,16.51l-23,51.73q-9.69-13.35-26.36-13.35-18,0-26.87,12.85t-10.18,41.88v64.07H792.1Zm-144.32,7A99.7,99.7,0,0,1,691.33,220q28.7,0,50,10.84a78.51,78.51,0,0,1,33,30.87q11.69,20,11.68,46.72,0,26.37-12.35,47.89a90,90,0,0,1-33.87,33.87A97.33,97.33,0,0,1,666.13,399a90,90,0,0,1-21.52-9.4,95,95,0,0,1-34.21-34.87,92.43,92.43,0,0,1-12.51-46.55q0-27.36,14.18-47.39A92.08,92.08,0,0,1,647.78,230.37ZM257.84,401.23H193.1l1.47-187.14,65.26-65.25Zm11.34-177.87,59.73-1v17a118.17,118.17,0,0,1,29.7-13.68A111.44,111.44,0,0,1,392,220.36q24.69,0,39,16.52t13.68,46.55l-2,117.8H381.64l.33-78.42q0-24.36-6.51-34.71t-19.18-10.34a27.7,27.7,0,0,0-17.86,6q-7.5,6-9.18,20.35l.34,97.11h-60.4ZM450,523.55l-118.14,1.33A48.94,48.94,0,0,0,343,543.07a25.66,25.66,0,0,0,16.86,7.84q26.68,2,38.71-15.68l47.72,13.68a64.2,64.2,0,0,1-16.69,28.2,87.24,87.24,0,0,1-29.53,19.52,93.35,93.35,0,0,1-35.54,7,52.91,52.91,0,0,1-6.68-.33,85.12,85.12,0,0,1-42.54-15,96.4,96.4,0,0,1-31-35,99.46,99.46,0,0,1-11.51-47.39,65,65,0,0,1,.33-7.68,75,75,0,0,1,13.51-39.37,82.64,82.64,0,0,1,32-27q19.86-9.66,43.89-9.67,41.7,0,64.74,24.36t23,66.41Q450.29,519.88,450,523.55ZM444,221.36l40,.67-.33-23q-1.35-33.7,18.85-50.39t53.9-16.68a100.43,100.43,0,0,1,32.2,5,68.18,68.18,0,0,1,25.19,14.69L611.57,199q-1-.66-10.68-6.17t-23.69-5.51A37,37,0,0,0,565.52,189a22,22,0,0,0-12.85,10.85q-4.51,8.17-5.51,22.86l51.39.66-3.67,60.07-45.38-.66,5,117.8H486.09l-1.33-118.81-34.38-.33ZM655.51,602H590.44V583.28q-10.35,9-26,14.69a92.69,92.69,0,0,1-31.71,5.67q-19.69,0-36.71-12.52t-27-33.87a107.15,107.15,0,0,1-10-46.05,97.83,97.83,0,0,1,10.35-43.72q10.33-21,27.19-34.2t35.21-13.52q35-1,57.73,16l-.64-100.22a93.47,93.47,0,0,0,11,29.74A95.09,95.09,0,0,0,634,400.17a90,90,0,0,0,21.52,9.4Zm196.9-12q-.33,16-7.5,37.37t-27.2,38.55q-20,17.18-55.07,17.18c-1.56,0-3.1,0-4.63-.09l-31-25.92,26-30.83c1.08.07,2.18.11,3.29.11q23.7,0,32.54-15.52a66.17,66.17,0,0,0,8.51-34.54V571.6a104.64,104.64,0,0,1-27,12.68,95.94,95.94,0,0,1-29,5,86.27,86.27,0,0,1-41.38-10.18,77.56,77.56,0,0,1-30-28,74.46,74.46,0,0,1-11-39.88,89.91,89.91,0,0,1,11.51-43.72,95.91,95.91,0,0,1,30.87-34q19.35-13,41-13a128.08,128.08,0,0,1,31.53,3.84,90.62,90.62,0,0,1,25.87,10.51l.33-11h54.4Zm183.88-66.41-118.14,1.33a48.94,48.94,0,0,0,11.18,18.19,25.66,25.66,0,0,0,16.86,7.84q26.68,2,38.71-15.68l47.72,13.68a64.2,64.2,0,0,1-16.69,28.2,87.24,87.24,0,0,1-29.53,19.52,93.35,93.35,0,0,1-35.54,7,52.91,52.91,0,0,1-6.68-.33,85.12,85.12,0,0,1-42.54-15,96.49,96.49,0,0,1-31-35,99.46,99.46,0,0,1-11.51-47.39,67.29,67.29,0,0,1,.33-7.68,75,75,0,0,1,13.52-39.37,82.53,82.53,0,0,1,32-27q19.86-9.66,43.89-9.67,41.7,0,64.74,24.36t23,66.41Q1036.62,519.88,1036.29,523.55Zm110.55-122.32-.33-92.77q0-18.34-4.17-25.36t-15.18-7q-8.36,0-13.52,10.18t-5.17,25.86l.33,6.34-.33-1v82.76l-62.74.67-.67-92.44q0-15.34-5.67-23.86a19.34,19.34,0,0,0-32.37.5q-5.68,9-5.68,25.7l.34,7-.34-.67,2.67,84.43H941.28V225.7l57.39-2,.34,13.35a63.89,63.89,0,0,1,21.19-10.35,96.49,96.49,0,0,1,27.2-3.67q30.69,0,46.38,15.69,8.34-9.34,22-13.35t35.71-4q31,0,45.22,24.53t14.51,79.26l.33,76.08Z"/><path d="M769.89,525.88a30.83,30.83,0,0,1-23.36,10.35,27.29,27.29,0,0,1-21.19-9.51q-8.51-9.51-8.51-24.2t8.51-24q8.52-9.33,21.86-9.34a31.34,31.34,0,0,1,23,9.34q9.33,9.36,9.34,23.36A34.08,34.08,0,0,1,769.89,525.88Z"/><path d="M581.28,527a40.85,40.85,0,0,1-13.52,13.68,32.43,32.43,0,0,1-17.35,5.17,31.09,31.09,0,0,1-16.85-5.17,38.83,38.83,0,0,1-13-13.52,34.23,34.23,0,0,1,5.68-42.21q10.5-10.51,24.19-10.51,14.36,0,25.2,10.51t10.84,24.53A33.33,33.33,0,0,1,581.28,527Z"/></g></svg>