<svg id="BLACK" xmlns="http://www.w3.org/2000/svg" viewBox="0 0 2048 1148"><defs><style>.cls-1{fill:#231f20;}.cls-2{fill:none;}</style></defs><title>InformEdge</title><path class="cls-1" d="M646.73,664.49q35.64,37.71,35.64,102.78,0,10.86-.52,16.53L499,785.87q6.19,17,17.3,28.15a39.67,39.67,0,0,0,26.08,12.13q41.31,3.11,59.92-24.27l73.85,21.18q-6.72,24.27-25.82,43.64a135,135,0,0,1-45.71,30.21,144.46,144.46,0,0,1-55,10.85,78.69,78.69,0,0,1-10.33-.52A131.59,131.59,0,0,1,473.45,884a149.23,149.23,0,0,1-48-54.23Q407.6,796.2,407.6,756.43a104,104,0,0,1,.51-11.88q2.07-34.09,20.92-60.95t49.58-41.83q30.74-15,67.92-15Q611.09,626.79,646.73,664.49Zm-147.2,58.37,87.29.51q-2.07-15-12.14-23.24a40.68,40.68,0,0,0-23-9.3Q513.47,687.74,499.53,722.86Z"/><path class="cls-2" d="M842.45,709.43q-21.18,0-37.44,16.27t-16.27,38.47A52.72,52.72,0,0,0,796.23,791,59.94,59.94,0,0,0,816.37,812q12.64,8,26.08,8a50.25,50.25,0,0,0,26.86-8,63.16,63.16,0,0,0,20.92-21.18,51.59,51.59,0,0,0,8-27.11q0-21.69-16.78-38T842.45,709.43Z"/><path d="M966.67,592.86a147.3,147.3,0,0,1-52.94-54,144.57,144.57,0,0,1-17-46l1,155.11q-35.13-26.36-89.35-24.8-28.43.52-54.49,20.92T711.78,697a151.5,151.5,0,0,0-16,67.66A165.79,165.79,0,0,0,711.27,836q15.5,33.06,41.83,52.42t56.81,19.37A143.44,143.44,0,0,0,859,899q24.27-8.78,40.29-22.73v28.93H1000V607.4A140,140,0,0,1,966.67,592.86ZM890.23,790.77A63.16,63.16,0,0,1,869.31,812a50.25,50.25,0,0,1-26.86,8q-13.43,0-26.08-8A59.94,59.94,0,0,1,796.23,791a52.72,52.72,0,0,1-7.49-26.86q0-22.18,16.27-38.47t37.44-16.27q22.2,0,39,16.27t16.78,38A51.59,51.59,0,0,1,890.23,790.77Z"/><path class="cls-1" d="M652.55,340.13q22.2,25.56,21.18,72.05l-3.1,182.32H576.11l.52-121.37q0-37.71-10.07-53.72t-29.7-16q-16,0-27.63,9.3T495,444.2l.52,150.3H402.06V319.21l92.45-1.55V344q19.62-12.9,46-21.17a171.93,171.93,0,0,1,51.65-8.27Q630.34,314.56,652.55,340.13Z"/><path class="cls-1" d="M840.81,282.8q-7,12.66-8.52,35.38l79.54,1-5.68,93-70.24-1,7.75,182.32H737.78L735.71,409.6l-53.2-.52-9.81-93,62,1-.52-35.64q-2.07-52.17,29.18-78t83.41-25.83a155.36,155.36,0,0,1,49.85,7.75q23,7.76,39,22.73L932,281.51q-1.56-1-16.53-9.56t-36.67-8.52A57.3,57.3,0,0,0,860.7,266Q847.79,270.15,840.81,282.8Z"/><path class="cls-1" d="M1410.24,325.67a97.18,97.18,0,0,1,31,25.56l-35.63,80.06q-15-20.66-40.81-20.66-27.88,0-41.57,19.88t-15.76,64.82V594.5h-96.06V319.21h96.06V343a105.11,105.11,0,0,1,31.77-19.37,96.5,96.5,0,0,1,35.38-7A77.21,77.21,0,0,1,1410.24,325.67Z"/><path class="cls-1" d="M1860.62,594.5h-100.2l-.52-143.58q0-28.41-6.46-39.26t-23.5-10.84q-12.92,0-20.91,15.75t-8,40l.52,9.81-.52-1.55V593l-97.1,1-1-143.06q0-23.76-8.78-36.93t-24.79-13.17q-16.54,0-25.31,13.94t-8.78,39.77l.51,10.85-.51-1L1539.36,595h-97.1V322.83l88.84-3.1.51,20.66q13.42-10.33,32.8-16a148.88,148.88,0,0,1,42.09-5.69q47.52,0,71.8,24.28,12.9-14.45,34.08-20.66t55.27-6.2q48,0,70,38t22.47,122.67Z"/><polygon points="286.59 304.86 284.31 594.5 384.51 594.5 387.59 203.87 286.59 304.86"/><path d="M1184,378.61q-18.09-31-51.13-47.78t-77.48-16.78q-34.08,0-67.4,16a142.45,142.45,0,0,0-55.26,47q-22,31-22,73.34a142.91,142.91,0,0,0,19.37,72.05,147.22,147.22,0,0,0,52.94,54A139.85,139.85,0,0,0,1016.42,591a145.58,145.58,0,0,0,40.54,5.6q40.29,0,73.6-19.11A139.35,139.35,0,0,0,1183,525q19.1-33.31,19.11-74.11Q1202.1,409.6,1184,378.61ZM1096,494.82q-14.22,13.94-35.9,13.94-24.78,0-40.8-15.23t-16-38.48q0-22.73,15.24-38.22t38.47-15.5q26.36,0,39.77,16t13.43,39.25Q1110.16,480.89,1096,494.82Z"/><path class="cls-1" d="M1554.19,664.49q35.64,37.71,35.64,102.78,0,10.86-.52,16.53l-182.84,2.07q6.21,17,17.31,28.15a39.67,39.67,0,0,0,26.08,12.13q41.31,3.11,59.91-24.27l73.86,21.18q-6.72,24.27-25.82,43.64a135.08,135.08,0,0,1-45.71,30.21,144.46,144.46,0,0,1-55,10.85,78.69,78.69,0,0,1-10.33-.52A131.59,131.59,0,0,1,1380.91,884a149.14,149.14,0,0,1-48-54.23q-17.82-33.57-17.82-73.34a104,104,0,0,1,.51-11.88q2.06-34.09,20.92-60.95t49.58-41.83q30.73-15,67.92-15Q1518.55,626.79,1554.19,664.49ZM1407,722.86l87.29.51q-2.07-15-12.14-23.24a40.68,40.68,0,0,0-23-9.3Q1420.93,687.74,1407,722.86Z"/><path class="cls-2" d="M1146.17,703.75q-20.67,0-33.83,14.46t-13.17,37.18q0,22.74,13.17,37.45t32.79,14.72q21.18,0,36.16-16t15-37.19q0-21.69-14.46-36.15T1146.17,703.75Z"/><path d="M1223.64,629.37l-.51,17q-16.55-10.33-40-16.27a198.46,198.46,0,0,0-48.81-5.94q-33.58,0-63.53,20.14A148.21,148.21,0,0,0,1023,697q-17.82,32.54-17.82,67.66,0,34.09,17,61.72a120,120,0,0,0,46.48,43.39,133.68,133.68,0,0,0,64,15.75q20.65,0,44.93-7.75t41.84-19.62v7.23q.51,29.43-13.17,53.45t-50.36,24c-1.72,0-3.42-.06-5.09-.17l-40.24,47.72,48,40.11q3.56.14,7.17.14,54.24,0,85.23-26.6t42.09-59.65q11.1-33.06,11.62-57.85l3.1-257.21Zm-42.35,162.18q-15,16-36.16,16-19.64,0-32.79-14.72t-13.17-37.45q0-22.71,13.17-37.18t33.83-14.46q21.16,0,35.64,14.46t14.46,36.15Q1196.27,775.54,1181.29,791.55Z"/></svg>