<svg xmlns="http://www.w3.org/2000/svg" viewBox="0 0 623.43 358.57"><defs><style>.cls-1{fill:#f1f2f2;}</style></defs><title>InformEdge</title><g id="WHITE_NEGATIVE"><path class="cls-1" d="M310.65,161.82a16.94,16.94,0,0,0,12.17,4.55,14.65,14.65,0,0,0,10.7-4.16q4.25-4.16,4.24-11.4a17.59,17.59,0,0,0-4-11.7q-4-4.79-11.86-4.78A15.41,15.41,0,0,0,310.42,139a15.62,15.62,0,0,0-4.54,11.4A15.15,15.15,0,0,0,310.65,161.82Z"/><path class="cls-1" d="M178.07,223.44a12.08,12.08,0,0,0-6.85-2.78q-11.4-.91-15.56,9.55l26,.16A10.4,10.4,0,0,0,178.07,223.44Z"/><path class="cls-1" d="M34.48,338v-.15A.09.09,0,0,0,34.48,338Z"/><path class="cls-1" d="M448.69,223.44a12.11,12.11,0,0,0-6.86-2.78q-11.4-.91-15.55,9.55l26,.16A10.44,10.44,0,0,0,448.69,223.44Z"/><path class="cls-1" d="M134,38,31.54,135.36,34.48,337.8C39,333.19,494.13,336,494.13,336l97.38-92.59V38Zm233.94,71.89h28.65v7.09a31.38,31.38,0,0,1,9.47-5.78,28.76,28.76,0,0,1,10.56-2.08,22.94,22.94,0,0,1,10.62,2.7,28.91,28.91,0,0,1,9.24,7.62l-10.62,23.87a14.27,14.27,0,0,0-12.17-6.16q-8.32,0-12.4,5.93t-4.7,19.33v29.58H367.94Zm-66.61,3.24a45.88,45.88,0,0,1,20.1-4.78q13.24,0,23.11,5a36.18,36.18,0,0,1,15.24,14.24q5.4,9.26,5.39,21.57a43.7,43.7,0,0,1-5.69,22.1,41.54,41.54,0,0,1-15.64,15.63,44.93,44.93,0,0,1-34,4,41.61,41.61,0,0,1-9.93-4.34,43.82,43.82,0,0,1-15.79-16.09A43.06,43.06,0,0,1,279,156.72a42.42,42.42,0,0,1-.7-7.76q0-12.61,6.54-21.87A42.46,42.46,0,0,1,301.33,113.08Zm-180,78.86H91.48l.68-86.38,30.12-30.12Zm5.23-82.1,27.57-.46v7.85a54.56,54.56,0,0,1,13.71-6.31,51.38,51.38,0,0,1,15.4-2.46q11.4,0,18,7.62t6.32,21.49l-.92,54.37H178.5l.15-36.2q0-11.24-3-16a9.81,9.81,0,0,0-8.86-4.77,12.78,12.78,0,0,0-8.24,2.77q-3.47,2.78-4.23,9.4l.15,44.82H126.59ZM210,248.39l-54.52.61a22.54,22.54,0,0,0,5.16,8.4,11.86,11.86,0,0,0,7.78,3.62q12.31.92,17.86-7.24l22,6.31a29.73,29.73,0,0,1-7.7,13,40.39,40.39,0,0,1-13.63,9,43.2,43.2,0,0,1-16.41,3.23,24,24,0,0,1-3.08-.15,39.34,39.34,0,0,1-19.64-6.93,44.6,44.6,0,0,1-14.32-16.17,46,46,0,0,1-5.31-21.88,31.38,31.38,0,0,1,.15-3.54,34.6,34.6,0,0,1,6.24-18.17A38.05,38.05,0,0,1,149.42,206a45.58,45.58,0,0,1,20.26-4.47q19.24,0,29.88,11.25t10.63,30.65C210.19,245.62,210.13,247.26,210,248.39ZM207.3,108.92l18.48.31-.15-10.63Q225,83,234.33,75.34t24.88-7.7A46.29,46.29,0,0,1,274.07,70a31.42,31.42,0,0,1,11.63,6.78L284.62,98.6q-.47-.31-4.93-2.85a21.74,21.74,0,0,0-10.93-2.54,16.85,16.85,0,0,0-5.39.77,10.12,10.12,0,0,0-5.93,5q-2.08,3.78-2.55,10.55l23.72.31-1.69,27.73-21-.31,2.31,54.37H226.71l-.62-54.83-15.86-.16Zm97.6,175.66h-30V276a37.49,37.49,0,0,1-12,6.77,42.59,42.59,0,0,1-14.63,2.62,28,28,0,0,1-16.94-5.77,40,40,0,0,1-12.48-15.64,49.42,49.42,0,0,1-4.62-21.25,47,47,0,0,1,17.33-36q7.77-6.08,16.25-6.23,16.17-.47,26.65,7.39l-.3-46.25a43.1,43.1,0,0,0,5.07,13.72A43.92,43.92,0,0,0,295,191.45a42,42,0,0,0,9.93,4.33ZM395.78,279a59,59,0,0,1-3.47,17.25q-3.3,9.85-12.55,17.79T354.35,322c-.72,0-1.43,0-2.14,0L337.9,310l12-14.23c.5,0,1,.06,1.52.06q10.93,0,15-7.17a30.51,30.51,0,0,0,3.93-15.94v-2.15a48.59,48.59,0,0,1-12.48,5.85,44.31,44.31,0,0,1-13.4,2.31,39.75,39.75,0,0,1-19.1-4.7,35.77,35.77,0,0,1-13.86-12.94,34.31,34.31,0,0,1-5.08-18.4,41.51,41.51,0,0,1,5.31-20.18A44.17,44.17,0,0,1,326,206.8a33.4,33.4,0,0,1,18.94-6,59.31,59.31,0,0,1,14.56,1.78,41.42,41.42,0,0,1,11.93,4.85l.16-5.09h25.1Zm84.87-30.65-54.53.61a22.54,22.54,0,0,0,5.16,8.4,11.88,11.88,0,0,0,7.78,3.62q12.31.92,17.87-7.24l22,6.31a29.54,29.54,0,0,1-7.7,13,40.29,40.29,0,0,1-13.63,9,43.19,43.19,0,0,1-16.4,3.23,23.75,23.75,0,0,1-3.08-.15,39.28,39.28,0,0,1-19.64-6.93,44.63,44.63,0,0,1-14.33-16.17,46,46,0,0,1-5.31-21.88,31.38,31.38,0,0,1,.15-3.54,34.6,34.6,0,0,1,6.24-18.17A38.16,38.16,0,0,1,420,206a45.57,45.57,0,0,1,20.25-4.47q19.26,0,29.88,11.25t10.63,30.65C480.8,245.62,480.75,247.26,480.65,248.39Zm51-56.45-.15-42.82q0-8.48-1.93-11.71t-7-3.23c-2.56,0-4.64,1.56-6.23,4.7A26.14,26.14,0,0,0,514,150.81l.15,2.93-.15-.46v38.19l-29,.31-.31-42.66q0-7.08-2.61-11a8.93,8.93,0,0,0-14.94.24q-2.62,4.16-2.62,11.86l.15,3.23-.15-.31,1.23,39h-29V110.92l26.49-.92.16,6.16a29.37,29.37,0,0,1,9.78-4.78,44.39,44.39,0,0,1,12.55-1.69q14.18,0,21.41,7.24a21.24,21.24,0,0,1,10.17-6.16q6.31-1.86,16.48-1.85,14.32,0,20.87,11.32t6.7,36.58l.15,35.12Z"/><path class="cls-1" d="M357.69,249.47a14.24,14.24,0,0,1-10.78,4.77,12.58,12.58,0,0,1-9.78-4.39,16.12,16.12,0,0,1-3.93-11.17,15.85,15.85,0,0,1,3.93-11.09,13,13,0,0,1,10.09-4.31,14.47,14.47,0,0,1,10.63,4.31,14.66,14.66,0,0,1,4.31,10.79A15.74,15.74,0,0,1,357.69,249.47Z"/><path class="cls-1" d="M270.64,250a18.74,18.74,0,0,1-6.24,6.31,15,15,0,0,1-8,2.39,14.34,14.34,0,0,1-7.77-2.39,17.86,17.86,0,0,1-6-6.24,15.79,15.79,0,0,1,2.62-19.48,15.34,15.34,0,0,1,11.16-4.85A16.2,16.2,0,0,1,268,230.55,15.13,15.13,0,0,1,270.64,250Z"/></g></svg>