<svg xmlns="http://www.w3.org/2000/svg" viewBox="0 0 1338.29 762.29"><defs><style>.cls-1{fill:#f1f2f2;}</style></defs><title>InformEdge</title><g id="WHITE_NEGATIVE"><path class="cls-1" d="M659.84,329.06q10.35,9.84,26.37,9.84,14,0,23.19-9t9.18-24.69q0-15-8.68-25.37t-25.7-10.34q-15,0-24.86,10t-9.84,24.69Q649.5,319.22,659.84,329.06Z"/><path class="cls-1" d="M372.59,462.55a26.24,26.24,0,0,0-14.85-6q-24.71-2-33.71,20.69l56.4.34Q379.1,467.88,372.59,462.55Z"/><path class="cls-1" d="M61.47,710.67v-.32A.2.2,0,0,0,61.47,710.67Z"/><path class="cls-1" d="M958.92,462.55a26.24,26.24,0,0,0-14.85-6q-24.71-2-33.71,20.69l56.4.34Q965.43,467.88,958.92,462.55Z"/><path class="cls-1" d="M277.09,60.67,55.1,271.72l6.37,438.63c9.86-10,995.91-4,995.91-4l211-200.6V60.67ZM784,216.43h62.07v15.35a68,68,0,0,1,20.52-12.52,62.48,62.48,0,0,1,22.86-4.5,49.89,49.89,0,0,1,23,5.84,62.62,62.62,0,0,1,20,16.52l-23,51.72q-9.69-13.33-26.37-13.35-18,0-26.86,12.85t-10.18,41.88V394.3H784Zm-144.33,7a99.61,99.61,0,0,1,43.55-10.35q28.69,0,50.06,10.85a78.49,78.49,0,0,1,33,30.86q11.67,20,11.68,46.72,0,26.37-12.35,47.89a89.92,89.92,0,0,1-33.87,33.87A97.33,97.33,0,0,1,658,392a90.21,90.21,0,0,1-21.53-9.39,95.17,95.17,0,0,1-34.2-34.88,92.33,92.33,0,0,1-12.52-46.55q0-27.36,14.19-47.39A91.94,91.94,0,0,1,639.65,223.44ZM249.71,394.3H185l1.48-187.14,65.26-65.26Zm11.34-177.87,59.74-1v17a118,118,0,0,1,29.7-13.69,111.39,111.39,0,0,1,33.37-5.34q24.69,0,39,16.52t13.69,46.56l-2,117.8H373.51l.34-78.43q0-24.35-6.51-34.7t-19.19-10.35a27.71,27.71,0,0,0-17.85,6q-7.51,6-9.18,20.36l.34,97.11H261.05ZM441.84,516.61,323.7,517.94a48.74,48.74,0,0,0,11.18,18.19A25.63,25.63,0,0,0,351.73,544q26.7,2,38.71-15.68L438.17,542a64.2,64.2,0,0,1-16.69,28.2A87.24,87.24,0,0,1,392,589.69a93.21,93.21,0,0,1-35.55,7,50.89,50.89,0,0,1-6.67-.33,85.18,85.18,0,0,1-42.55-15,96.46,96.46,0,0,1-31-35,99.44,99.44,0,0,1-11.52-47.39,64.41,64.41,0,0,1,.34-7.67,75,75,0,0,1,13.51-39.38,82.53,82.53,0,0,1,32-27q19.85-9.68,43.88-9.68,41.72,0,64.74,24.36t23,66.41Q442.17,512.94,441.84,516.61Zm-5.92-302.19,40.05.67-.34-23q-1.33-33.7,18.86-50.4T548.38,125a100.22,100.22,0,0,1,32.21,5,68.19,68.19,0,0,1,25.19,14.68l-2.33,47.39q-1-.67-10.68-6.18t-23.7-5.5a37.07,37.07,0,0,0-11.68,1.66,22.05,22.05,0,0,0-12.85,10.85q-4.5,8.17-5.5,22.86l51.39.67-3.67,60.07-45.39-.67,5,117.8H478l-1.34-118.8-34.37-.34ZM647.39,595H582.31V576.34q-10.35,9-26,14.69a92.64,92.64,0,0,1-31.7,5.67q-19.7,0-36.71-12.51t-27-33.88a107.15,107.15,0,0,1-10-46,97.88,97.88,0,0,1,10.34-43.71q10.35-21,27.2-34.21t35.21-13.52q35-1,57.73,16l-.64-100.22a93.14,93.14,0,0,0,11,29.74,95.17,95.17,0,0,0,34.2,34.88,90.21,90.21,0,0,0,21.53,9.39Zm196.9-12q-.33,16-7.51,37.37t-27.19,38.55q-20,17.17-55.07,17.18c-1.56,0-3.1,0-4.63-.08l-31-25.93,26-30.83c1.08.07,2.18.11,3.29.11q23.7,0,32.54-15.51a66.19,66.19,0,0,0,8.51-34.54v-4.68a104.81,104.81,0,0,1-27,12.69,96.23,96.23,0,0,1-29,5,86.3,86.3,0,0,1-41.38-10.18,77.53,77.53,0,0,1-30-28,74.43,74.43,0,0,1-11-39.88,89.76,89.76,0,0,1,11.51-43.71,95.65,95.65,0,0,1,30.87-34q19.35-13,41-13a128.16,128.16,0,0,1,31.54,3.84,90.44,90.44,0,0,1,25.86,10.51l.34-11h54.39Zm183.88-66.41L910,517.94a48.74,48.74,0,0,0,11.18,18.19A25.63,25.63,0,0,0,938.06,544q26.7,2,38.71-15.68L1024.5,542a64.2,64.2,0,0,1-16.69,28.2,87.24,87.24,0,0,1-29.53,19.52,93.21,93.21,0,0,1-35.55,7,50.89,50.89,0,0,1-6.67-.33,85.18,85.18,0,0,1-42.55-15,96.46,96.46,0,0,1-31-35A99.44,99.44,0,0,1,851,498.92a64.41,64.41,0,0,1,.34-7.67,75,75,0,0,1,13.51-39.38,82.53,82.53,0,0,1,32-27q19.85-9.68,43.88-9.68,41.71,0,64.74,24.36t23,66.41C1028.5,510.6,1028.38,514.16,1028.17,516.61ZM1138.72,394.3l-.33-92.78q0-18.34-4.17-25.36t-15.19-7q-8.34,0-13.51,10.18t-5.18,25.87l.34,6.34-.34-1V393.3l-62.73.66-.67-92.44q0-15.34-5.68-23.86a19.34,19.34,0,0,0-32.37.5q-5.67,9-5.67,25.7l.34,7-.34-.67,2.67,84.43H933.15V218.76l57.4-2,.34,13.35a63.8,63.8,0,0,1,21.19-10.35,96.47,96.47,0,0,1,27.19-3.67q30.7,0,46.39,15.69,8.34-9.34,22-13.35t35.7-4q31,0,45.22,24.53t14.52,79.26l.33,76.09Z"/><path class="cls-1" d="M761.77,518.94a30.83,30.83,0,0,1-23.36,10.35,27.26,27.26,0,0,1-21.19-9.51q-8.51-9.51-8.51-24.2t8.51-24q8.5-9.35,21.86-9.35a31.28,31.28,0,0,1,23,9.35q9.35,9.35,9.35,23.36A34.07,34.07,0,0,1,761.77,518.94Z"/><path class="cls-1" d="M573.16,520a40.76,40.76,0,0,1-13.52,13.68,32.45,32.45,0,0,1-17.35,5.18,31.07,31.07,0,0,1-16.85-5.18,38.63,38.63,0,0,1-13-13.51A34.2,34.2,0,0,1,518.1,478q10.5-10.51,24.19-10.51,14.34,0,25.19,10.51t10.85,24.53A33.37,33.37,0,0,1,573.16,520Z"/></g></svg>