<svg id="BLACK" xmlns="http://www.w3.org/2000/svg" viewBox="0 0 623.43 358.57"><defs><style>.cls-1{fill:#231f20;}.cls-2{fill:none;}</style></defs><title>InformEdge</title><path class="cls-1" d="M199.22,208.14q10.64,11.25,10.63,30.65c0,2.16,0,3.8-.15,4.93l-54.53.62a22.5,22.5,0,0,0,5.16,8.39,11.83,11.83,0,0,0,7.78,3.62q12.31.93,17.87-7.24l22,6.32a29.56,29.56,0,0,1-7.7,13,40.14,40.14,0,0,1-13.63,9,43,43,0,0,1-16.4,3.24,23.4,23.4,0,0,1-3.08-.16,39.18,39.18,0,0,1-19.64-6.93,44.55,44.55,0,0,1-14.33-16.17,45.92,45.92,0,0,1-5.31-21.87,31.38,31.38,0,0,1,.15-3.54,34.63,34.63,0,0,1,6.24-18.18,38.16,38.16,0,0,1,14.79-12.48,45.7,45.7,0,0,1,20.25-4.46Q188.6,196.9,199.22,208.14Zm-43.89,17.41,26,.15a10.44,10.44,0,0,0-3.62-6.93,12.1,12.1,0,0,0-6.86-2.77Q159.48,215.07,155.33,225.55Z"/><path class="cls-2" d="M257.59,221.54a15.38,15.38,0,0,0-11.17,4.85,15.81,15.81,0,0,0-2.62,19.49,17.92,17.92,0,0,0,6,6.23,14.32,14.32,0,0,0,7.78,2.39,14.93,14.93,0,0,0,8-2.39,18.92,18.92,0,0,0,6.24-6.31,15.16,15.16,0,0,0-2.62-19.41A16.23,16.23,0,0,0,257.59,221.54Z"/><path d="M294.63,186.78a44,44,0,0,1-15.79-16.1A43,43,0,0,1,273.77,157l.3,46.25q-10.47-7.85-26.65-7.39-8.46.15-16.25,6.24a46.92,46.92,0,0,0-17.32,36,49.47,49.47,0,0,0,4.62,21.26,40.06,40.06,0,0,0,12.47,15.63,28.07,28.07,0,0,0,16.95,5.78,42.92,42.92,0,0,0,14.63-2.62,37.64,37.64,0,0,0,12-6.78v8.63h30v-88.8A41.68,41.68,0,0,1,294.63,186.78Zm-22.79,59a18.92,18.92,0,0,1-6.24,6.31,14.93,14.93,0,0,1-8,2.39,14.32,14.32,0,0,1-7.78-2.39,17.92,17.92,0,0,1-6-6.23,15.81,15.81,0,0,1,2.62-19.49,15.38,15.38,0,0,1,11.17-4.85,16.23,16.23,0,0,1,11.63,4.85,15.16,15.16,0,0,1,2.62,19.41Z"/><path class="cls-1" d="M201,111.41q6.61,7.64,6.31,21.49l-.92,54.37H178.16l.16-36.2q0-11.23-3-16a9.79,9.79,0,0,0-8.85-4.78,12.82,12.82,0,0,0-8.24,2.77q-3.47,2.77-4.24,9.4l.16,44.82H126.26V105.18l27.57-.47v7.86a54.57,54.57,0,0,1,13.71-6.32,51.33,51.33,0,0,1,15.4-2.46Q194.34,103.79,201,111.41Z"/><path class="cls-1" d="M257.1,94.32q-2.09,3.77-2.54,10.55l23.72.31-1.7,27.72-20.94-.31L258,187H226.37l-.61-54.83L209.89,132,207,104.25l18.48.31-.16-10.63q-.61-15.56,8.71-23.26T258.87,63a46.24,46.24,0,0,1,14.86,2.31,31.42,31.42,0,0,1,11.63,6.78l-1.07,21.87c-.31-.2-2-1.15-4.93-2.85a21.88,21.88,0,0,0-10.94-2.54,17.17,17.17,0,0,0-5.39.77A10.13,10.13,0,0,0,257.1,94.32Z"/><path class="cls-1" d="M426.91,107.1a29,29,0,0,1,9.24,7.62L425.52,138.6a14.23,14.23,0,0,0-12.17-6.16q-8.31,0-12.4,5.93t-4.69,19.33v29.57H367.61V105.18h28.65v7.08a31.46,31.46,0,0,1,9.47-5.78,28.91,28.91,0,0,1,10.55-2.08A23.11,23.11,0,0,1,426.91,107.1Z"/><path class="cls-1" d="M561.22,187.27H531.34l-.16-42.82q0-8.47-1.92-11.7c-1.29-2.16-3.62-3.24-7-3.24q-3.86,0-6.24,4.7a26.29,26.29,0,0,0-2.39,11.94l.16,2.92-.16-.46v38.2l-28.95.31-.31-42.67q0-7.08-2.62-11a8.92,8.92,0,0,0-14.94.23q-2.62,4.16-2.62,11.86l.16,3.23-.16-.3,1.23,39h-29V106.25l26.49-.92.15,6.16a29.55,29.55,0,0,1,9.78-4.77,44.45,44.45,0,0,1,12.56-1.7q14.16,0,21.41,7.24A21.24,21.24,0,0,1,517,106.1a60.36,60.36,0,0,1,16.48-1.85q14.32,0,20.87,11.32t6.7,36.58Z"/><polygon points="91.83 100.9 91.14 187.27 121.02 187.27 121.94 70.78 91.83 100.9"/><path d="M359.45,122.89a36.28,36.28,0,0,0-15.25-14.25q-9.85-5-23.1-5a46,46,0,0,0-20.1,4.78,42.33,42.33,0,0,0-16.48,14Q278,131.67,278,144.3a42.52,42.52,0,0,0,5.78,21.48,44,44,0,0,0,15.78,16.1,42.08,42.08,0,0,0,9.94,4.34,44.93,44.93,0,0,0,34-4,41.54,41.54,0,0,0,15.63-15.64,43.6,43.6,0,0,0,5.7-22.1A42.05,42.05,0,0,0,359.45,122.89Zm-26.26,34.65a14.67,14.67,0,0,1-10.71,4.16,17,17,0,0,1-12.17-4.54,15.19,15.19,0,0,1-4.77-11.48,15.61,15.61,0,0,1,4.54-11.39,15.44,15.44,0,0,1,11.48-4.63q7.86,0,11.86,4.78a17.59,17.59,0,0,1,4,11.71Q337.42,153.38,333.19,157.54Z"/><path class="cls-1" d="M469.84,208.14q10.62,11.25,10.62,30.65c0,2.16,0,3.8-.15,4.93l-54.52.62a22.5,22.5,0,0,0,5.16,8.39,11.81,11.81,0,0,0,7.77,3.62q12.33.93,17.87-7.24l22,6.32a29.68,29.68,0,0,1-7.71,13,40.14,40.14,0,0,1-13.63,9,43,43,0,0,1-16.4,3.24,23.51,23.51,0,0,1-3.08-.16,39.21,39.21,0,0,1-19.64-6.93,44.52,44.52,0,0,1-14.32-16.17,45.93,45.93,0,0,1-5.32-21.87,28.75,28.75,0,0,1,.16-3.54,34.63,34.63,0,0,1,6.24-18.18,38.05,38.05,0,0,1,14.78-12.48A45.71,45.71,0,0,1,440,196.9Q459.21,196.9,469.84,208.14Zm-43.9,17.41,26,.15a10.4,10.4,0,0,0-3.62-6.93A12.07,12.07,0,0,0,441.5,216Q430.1,215.07,425.94,225.55Z"/><path class="cls-2" d="M348.16,219.85a13,13,0,0,0-10.09,4.31,15.83,15.83,0,0,0-3.93,11.09,16.12,16.12,0,0,0,3.93,11.17,12.61,12.61,0,0,0,9.78,4.39A14.21,14.21,0,0,0,358.63,246a15.72,15.72,0,0,0,4.47-11.09,14.65,14.65,0,0,0-4.31-10.78A14.47,14.47,0,0,0,348.16,219.85Z"/><path d="M371.26,197.67l-.15,5.08a41.89,41.89,0,0,0-11.94-4.85,59.17,59.17,0,0,0-14.55-1.77,33.35,33.35,0,0,0-18.95,6,44.15,44.15,0,0,0-14.24,15.71A41.34,41.34,0,0,0,306.11,238a34.43,34.43,0,0,0,5.08,18.41,35.88,35.88,0,0,0,13.87,12.94,39.83,39.83,0,0,0,19.1,4.69,44.36,44.36,0,0,0,13.4-2.31A48.52,48.52,0,0,0,370,265.9v2.16A30.56,30.56,0,0,1,366.1,284q-4.08,7.15-15,7.16c-.52,0-1,0-1.52-.05l-12,14.23,14.3,12c.71,0,1.42,0,2.14,0q16.17,0,25.42-7.93T392,291.62a59,59,0,0,0,3.46-17.25l.93-76.7ZM358.63,246a14.21,14.21,0,0,1-10.78,4.78,12.61,12.61,0,0,1-9.78-4.39,16.12,16.12,0,0,1-3.93-11.17,15.83,15.83,0,0,1,3.93-11.09,13,13,0,0,1,10.09-4.31,14.47,14.47,0,0,1,10.63,4.31,14.65,14.65,0,0,1,4.31,10.78A15.72,15.72,0,0,1,358.63,246Z"/></svg>